<svg xmlns="http://www.w3.org/2000/svg" viewBox="0 0 1090 580" font-family="monospace" font-size="10">
<defs><marker id="arrow" viewBox="0 0 10 10" refX="10" refY="5" markerWidth="6" markerHeight="6" orient="auto-start-reverse"><path d="M 0 0 L 10 5 L 0 10 z" fill="#888"/></marker></defs>
<rect width="1090" height="580" fill="white"/>
<style>.ea{stroke:#bbb;stroke-width:0.8;fill:none;marker-end:url(#arrow)}.nr{fill:white;stroke:#999;stroke-width:1}.nt{fill:#333;text-anchor:middle;font-size:9px}.gl{font-size:9px;font-weight:bold;fill:#555}</style>
<rect x="8" y="16" width="164" height="186" fill="#ffb0b0" rx="4" stroke="#ccc" stroke-width="1"/>
<text x="12" y="26" class="gl">argus/patrol</text>
<rect x="8" y="216" width="164" height="368" fill="#ffd0d0" rx="4" stroke="#ccc" stroke-width="1"/>
<text x="12" y="226" class="gl">argus (Slack Bot)</text>
<rect x="190" y="16" width="164" height="160" fill="#d0e8ff" rx="4" stroke="#ccc" stroke-width="1"/>
<text x="194" y="26" class="gl">ingest</text>
<rect x="190" y="190" width="164" height="238" fill="#d0ffe8" rx="4" stroke="#ccc" stroke-width="1"/>
<text x="194" y="200" class="gl">data-pipeline</text>
<rect x="372" y="16" width="164" height="134" fill="#e8d0ff" rx="4" stroke="#ccc" stroke-width="1"/>
<text x="376" y="26" class="gl">enrich</text>
<rect x="372" y="164" width="164" height="108" fill="#fff0d0" rx="4" stroke="#ccc" stroke-width="1"/>
<text x="376" y="174" class="gl">minutes</text>
<rect x="372" y="286" width="164" height="186" fill="#d0f0ff" rx="4" stroke="#ccc" stroke-width="1"/>
<text x="376" y="296" class="gl">recording</text>
<rect x="554" y="16" width="164" height="82" fill="#ffe8d0" rx="4" stroke="#ccc" stroke-width="1"/>
<text x="558" y="26" class="gl">quality</text>
<rect x="554" y="112" width="164" height="186" fill="#f0ffd0" rx="4" stroke="#ccc" stroke-width="1"/>
<text x="558" y="122" class="gl">reporting</text>
<rect x="736" y="16" width="164" height="108" fill="#f5d0ff" rx="4" stroke="#ccc" stroke-width="1"/>
<text x="740" y="26" class="gl">web (FastAPI)</text>
<rect x="736" y="138" width="164" height="56" fill="#e0e0e0" rx="4" stroke="#ccc" stroke-width="1"/>
<text x="740" y="148" class="gl">bin</text>
<rect x="736" y="208" width="164" height="82" fill="#f5f5f5" rx="4" stroke="#ccc" stroke-width="1"/>
<text x="740" y="218" class="gl">root (symlinks)</text>
<rect x="918" y="16" width="164" height="394" fill="#f0f0f0" rx="4" stroke="#ccc" stroke-width="1"/>
<text x="922" y="26" class="gl">utils</text>
<rect x="16" y="32" width="148" height="20" class="nr" rx="3"/>
<text x="90" y="46" class="nt">actions</text>
<rect x="16" y="232" width="148" height="20" class="nr" rx="3"/>
<text x="90" y="246" class="nt">agent_tools</text>
<rect x="16" y="258" width="148" height="20" class="nr" rx="3"/>
<text x="90" y="272" class="nt">argus</text>
<rect x="16" y="58" width="148" height="20" class="nr" rx="3"/>
<text x="90" y="72" class="nt">argus.patrol</text>
<rect x="926" y="32" width="148" height="20" class="nr" rx="3"/>
<text x="1000" y="46" class="nt">box_cli</text>
<rect x="744" y="224" width="148" height="20" class="nr" rx="3"/>
<text x="818" y="238" class="nt">build_slide_video</text>
<rect x="926" y="58" width="148" height="20" class="nr" rx="3"/>
<text x="1000" y="72" class="nt">canvas_utils</text>
<rect x="926" y="84" width="148" height="20" class="nr" rx="3"/>
<text x="1000" y="98" class="nt">cli_utils</text>
<rect x="16" y="84" width="148" height="20" class="nr" rx="3"/>
<text x="90" y="98" class="nt">confirm</text>
<rect x="926" y="110" width="148" height="20" class="nr" rx="3"/>
<text x="1000" y="124" class="nt">db_utils</text>
<rect x="16" y="110" width="148" height="20" class="nr" rx="3"/>
<text x="90" y="124" class="nt">detect</text>
<rect x="926" y="136" width="148" height="20" class="nr" rx="3"/>
<text x="1000" y="150" class="nt">embed_utils</text>
<rect x="380" y="32" width="148" height="20" class="nr" rx="3"/>
<text x="454" y="46" class="nt">enrich</text>
<rect x="380" y="58" width="148" height="20" class="nr" rx="3"/>
<text x="454" y="72" class="nt">enrich_items</text>
<rect x="926" y="162" width="148" height="20" class="nr" rx="3"/>
<text x="1000" y="176" class="nt">eval_rivault_models</text>
<rect x="926" y="188" width="148" height="20" class="nr" rx="3"/>
<text x="1000" y="202" class="nt">format_utils</text>
<rect x="380" y="302" width="148" height="20" class="nr" rx="3"/>
<text x="454" y="316" class="nt">generate_minutes_local</text>
<rect x="926" y="214" width="148" height="20" class="nr" rx="3"/>
<text x="1000" y="228" class="nt">glossary</text>
<rect x="562" y="128" width="148" height="20" class="nr" rx="3"/>
<text x="636" y="142" class="nt">goals_print</text>
<rect x="198" y="32" width="148" height="20" class="nr" rx="3"/>
<text x="272" y="46" class="nt">ingest</text>
<rect x="198" y="58" width="148" height="20" class="nr" rx="3"/>
<text x="272" y="72" class="nt">ingest_plugin</text>
<rect x="380" y="84" width="148" height="20" class="nr" rx="3"/>
<text x="454" y="98" class="nt">knowledge_context</text>
<rect x="926" y="240" width="148" height="20" class="nr" rx="3"/>
<text x="1000" y="254" class="nt">llm</text>
<rect x="16" y="284" width="148" height="20" class="nr" rx="3"/>
<text x="90" y="298" class="nt">mcp_explorer</text>
<rect x="16" y="310" width="148" height="20" class="nr" rx="3"/>
<text x="90" y="324" class="nt">mcp_tools</text>
<rect x="198" y="84" width="148" height="20" class="nr" rx="3"/>
<text x="272" y="98" class="nt">minutes</text>
<rect x="16" y="336" width="148" height="20" class="nr" rx="3"/>
<text x="90" y="350" class="nt">narrate</text>
<rect x="16" y="362" width="148" height="20" class="nr" rx="3"/>
<text x="90" y="376" class="nt">output_tools</text>
<rect x="744" y="32" width="148" height="20" class="nr" rx="3"/>
<text x="818" y="46" class="nt">pm_api</text>
<rect x="16" y="388" width="148" height="20" class="nr" rx="3"/>
<text x="90" y="402" class="nt">pm_argus</text>
<rect x="16" y="414" width="148" height="20" class="nr" rx="3"/>
<text x="90" y="428" class="nt">pm_argus_agent</text>
<rect x="16" y="440" width="148" height="20" class="nr" rx="3"/>
<text x="90" y="454" class="nt">pm_argus_patrol</text>
<rect x="198" y="206" width="148" height="20" class="nr" rx="3"/>
<text x="272" y="220" class="nt">pm_box_crawl</text>
<rect x="198" y="232" width="148" height="20" class="nr" rx="3"/>
<text x="272" y="246" class="nt">pm_box_relevance</text>
<rect x="198" y="258" width="148" height="20" class="nr" rx="3"/>
<text x="272" y="272" class="nt">pm_embed</text>
<rect x="198" y="110" width="148" height="20" class="nr" rx="3"/>
<text x="272" y="124" class="nt">pm_ingest</text>
<rect x="562" y="154" width="148" height="20" class="nr" rx="3"/>
<text x="636" y="168" class="nt">pm_insight</text>
<rect x="744" y="154" width="148" height="20" class="nr" rx="3"/>
<text x="818" y="168" class="nt">pm_investigate_app</text>
<rect x="380" y="110" width="148" height="20" class="nr" rx="3"/>
<text x="454" y="124" class="nt">pm_link_milestones</text>
<rect x="744" y="250" width="148" height="20" class="nr" rx="3"/>
<text x="818" y="264" class="nt">pm_mcp_server</text>
<rect x="380" y="180" width="148" height="20" class="nr" rx="3"/>
<text x="454" y="194" class="nt">pm_minutes_catalog</text>
<rect x="380" y="206" width="148" height="20" class="nr" rx="3"/>
<text x="454" y="220" class="nt">pm_minutes_import</text>
<rect x="380" y="232" width="148" height="20" class="nr" rx="3"/>
<text x="454" y="246" class="nt">pm_minutes_publish</text>
<rect x="16" y="466" width="148" height="20" class="nr" rx="3"/>
<text x="90" y="480" class="nt">pm_qa_server</text>
<rect x="562" y="32" width="148" height="20" class="nr" rx="3"/>
<text x="636" y="46" class="nt">pm_relink</text>
<rect x="562" y="180" width="148" height="20" class="nr" rx="3"/>
<text x="636" y="194" class="nt">pm_report</text>
<rect x="562" y="58" width="148" height="20" class="nr" rx="3"/>
<text x="636" y="72" class="nt">pm_screen</text>
<rect x="198" y="284" width="148" height="20" class="nr" rx="3"/>
<text x="272" y="298" class="nt">pm_slack_box_links</text>
<rect x="562" y="206" width="148" height="20" class="nr" rx="3"/>
<text x="636" y="220" class="nt">pm_sync_canvas</text>
<rect x="198" y="310" width="148" height="20" class="nr" rx="3"/>
<text x="272" y="324" class="nt">pm_terminology_update</text>
<rect x="198" y="336" width="148" height="20" class="nr" rx="3"/>
<text x="272" y="350" class="nt">pm_users_sync</text>
<rect x="198" y="362" width="148" height="20" class="nr" rx="3"/>
<text x="272" y="376" class="nt">pm_web_fetch</text>
<rect x="562" y="232" width="148" height="20" class="nr" rx="3"/>
<text x="636" y="246" class="nt">pm_xlsx_report</text>
<rect x="562" y="258" width="148" height="20" class="nr" rx="3"/>
<text x="636" y="272" class="nt">pm_xlsx_sync</text>
<rect x="926" y="266" width="148" height="20" class="nr" rx="3"/>
<text x="1000" y="280" class="nt">pptx_theme</text>
<rect x="16" y="492" width="148" height="20" class="nr" rx="3"/>
<text x="90" y="506" class="nt">prompts</text>
<rect x="16" y="518" width="148" height="20" class="nr" rx="3"/>
<text x="90" y="532" class="nt">qa_engine</text>
<rect x="380" y="328" width="148" height="20" class="nr" rx="3"/>
<text x="454" y="342" class="nt">reconcile_transcript</text>
<rect x="380" y="354" width="148" height="20" class="nr" rx="3"/>
<text x="454" y="368" class="nt">recording</text>
<rect x="16" y="544" width="148" height="20" class="nr" rx="3"/>
<text x="90" y="558" class="nt">retrieval</text>
<rect x="198" y="136" width="148" height="20" class="nr" rx="3"/>
<text x="272" y="150" class="nt">slack</text>
<rect x="198" y="388" width="148" height="20" class="nr" rx="3"/>
<text x="272" y="402" class="nt">slack_pipeline</text>
<rect x="926" y="292" width="148" height="20" class="nr" rx="3"/>
<text x="1000" y="306" class="nt">slack_post</text>
<rect x="380" y="380" width="148" height="20" class="nr" rx="3"/>
<text x="454" y="394" class="nt">slide_ocr</text>
<rect x="16" y="136" width="148" height="20" class="nr" rx="3"/>
<text x="90" y="150" class="nt">state</text>
<rect x="926" y="318" width="148" height="20" class="nr" rx="3"/>
<text x="1000" y="332" class="nt">terminology</text>
<rect x="380" y="406" width="148" height="20" class="nr" rx="3"/>
<text x="454" y="420" class="nt">transcribe_pipeline</text>
<rect x="926" y="344" width="148" height="20" class="nr" rx="3"/>
<text x="1000" y="358" class="nt">transcript</text>
<rect x="16" y="162" width="148" height="20" class="nr" rx="3"/>
<text x="90" y="176" class="nt">users</text>
<rect x="926" y="370" width="148" height="20" class="nr" rx="3"/>
<text x="1000" y="384" class="nt">voice_uploads</text>
<rect x="744" y="58" width="148" height="20" class="nr" rx="3"/>
<text x="818" y="72" class="nt">web_admin</text>
<rect x="744" y="84" width="148" height="20" class="nr" rx="3"/>
<text x="818" y="98" class="nt">web_utils</text>
<rect x="380" y="432" width="148" height="20" class="nr" rx="3"/>
<text x="454" y="446" class="nt">whisper_vad</text>
<path d="M 926 94 C 1000.0 94,1000.0 250,1074 250" class="ea"/>
<path d="M 926 94 C 1000.0 94,1000.0 354,1074 354" class="ea"/>
<path d="M 16 94 C 90.0 94,90.0 146,164 146" class="ea"/>
<path d="M 926 120 C 1000.0 120,1000.0 94,1074 94" class="ea"/>
<path d="M 528 68 C 727.0 68,727.0 94,926 94" class="ea"/>
<path d="M 528 68 C 727.0 68,727.0 120,926 120" class="ea"/>
<path d="M 380 68 C 454.0 68,454.0 94,528 94" class="ea"/>
<path d="M 926 198 C 1000.0 198,1000.0 120,1074 120" class="ea"/>
<path d="M 528 312 C 727.0 312,727.0 94,926 94" class="ea"/>
<path d="M 346 94 C 636.0 94,636.0 120,926 120" class="ea"/>
<path d="M 198 94 C 272.0 94,272.0 68,346 68" class="ea"/>
<path d="M 892 42 C 909.0 42,909.0 120,926 120" class="ea"/>
<path d="M 744 42 C 818.0 42,818.0 68,892 68" class="ea"/>
<path d="M 744 42 C 818.0 42,818.0 94,892 94" class="ea"/>
<path d="M 164 398 C 545.0 398,545.0 94,926 94" class="ea"/>
<path d="M 164 398 C 545.0 398,545.0 120,926 120" class="ea"/>
<path d="M 164 398 C 545.0 398,545.0 198,926 198" class="ea"/>
<path d="M 16 398 C 90.0 398,90.0 502,164 502" class="ea"/>
<path d="M 164 398 C 545.0 398,545.0 302,926 302" class="ea"/>
<path d="M 16 424 C 90.0 424,90.0 242,164 242" class="ea"/>
<path d="M 164 424 C 545.0 424,545.0 94,926 94" class="ea"/>
<path d="M 164 424 C 545.0 424,545.0 120,926 120" class="ea"/>
<path d="M 164 450 C 545.0 450,545.0 120,926 120" class="ea"/>
<path d="M 16 450 C 90.0 450,90.0 120,164 120" class="ea"/>
<path d="M 16 450 C 90.0 450,90.0 146,164 146" class="ea"/>
<path d="M 16 450 C 90.0 450,90.0 172,164 172" class="ea"/>
<path d="M 346 216 C 636.0 216,636.0 120,926 120" class="ea"/>
<path d="M 346 242 C 636.0 242,636.0 94,926 94" class="ea"/>
<path d="M 346 242 C 636.0 242,636.0 120,926 120" class="ea"/>
<path d="M 346 268 C 636.0 268,636.0 120,926 120" class="ea"/>
<path d="M 346 120 C 636.0 120,636.0 94,926 94" class="ea"/>
<path d="M 346 120 C 636.0 120,636.0 120,926 120" class="ea"/>
<path d="M 198 120 C 272.0 120,272.0 68,346 68" class="ea"/>
<path d="M 198 120 C 272.0 120,272.0 94,346 94" class="ea"/>
<path d="M 198 120 C 272.0 120,272.0 146,346 146" class="ea"/>
<path d="M 710 164 C 818.0 164,818.0 68,926 68" class="ea"/>
<path d="M 710 164 C 818.0 164,818.0 94,926 94" class="ea"/>
<path d="M 710 164 C 818.0 164,818.0 120,926 120" class="ea"/>
<path d="M 710 164 C 818.0 164,818.0 198,926 198" class="ea"/>
<path d="M 528 120 C 727.0 120,727.0 94,926 94" class="ea"/>
<path d="M 528 120 C 727.0 120,727.0 120,926 120" class="ea"/>
<path d="M 528 190 C 727.0 190,727.0 42,926 42" class="ea"/>
<path d="M 528 190 C 727.0 190,727.0 94,926 94" class="ea"/>
<path d="M 380 190 C 454.0 190,454.0 216,528 216" class="ea"/>
<path d="M 528 216 C 727.0 216,727.0 94,926 94" class="ea"/>
<path d="M 528 216 C 727.0 216,727.0 120,926 120" class="ea"/>
<path d="M 528 242 C 727.0 242,727.0 42,926 42" class="ea"/>
<path d="M 528 242 C 727.0 242,727.0 120,926 120" class="ea"/>
<path d="M 380 242 C 363.0 242,363.0 94,346 94" class="ea"/>
<path d="M 380 242 C 454.0 242,454.0 216,528 216" class="ea"/>
<path d="M 528 242 C 545.0 242,545.0 190,562 190" class="ea"/>
<path d="M 528 242 C 545.0 242,545.0 242,562 242" class="ea"/>
<path d="M 164 476 C 545.0 476,545.0 94,926 94" class="ea"/>
<path d="M 16 476 C 90.0 476,90.0 94,164 94" class="ea"/>
<path d="M 164 476 C 545.0 476,545.0 120,926 120" class="ea"/>
<path d="M 16 476 C 90.0 476,90.0 346,164 346" class="ea"/>
<path d="M 16 476 C 90.0 476,90.0 398,164 398" class="ea"/>
<path d="M 16 476 C 90.0 476,90.0 424,164 424" class="ea"/>
<path d="M 16 476 C 90.0 476,90.0 554,164 554" class="ea"/>
<path d="M 16 476 C 90.0 476,90.0 146,164 146" class="ea"/>
<path d="M 710 42 C 818.0 42,818.0 94,926 94" class="ea"/>
<path d="M 710 42 C 818.0 42,818.0 120,926 120" class="ea"/>
<path d="M 710 190 C 818.0 190,818.0 68,926 68" class="ea"/>
<path d="M 710 190 C 818.0 190,818.0 94,926 94" class="ea"/>
<path d="M 710 190 C 818.0 190,818.0 120,926 120" class="ea"/>
<path d="M 710 68 C 818.0 68,818.0 94,926 94" class="ea"/>
<path d="M 710 68 C 818.0 68,818.0 120,926 120" class="ea"/>
<path d="M 346 294 C 636.0 294,636.0 94,926 94" class="ea"/>
<path d="M 346 294 C 636.0 294,636.0 120,926 120" class="ea"/>
<path d="M 710 216 C 818.0 216,818.0 94,926 94" class="ea"/>
<path d="M 710 216 C 818.0 216,818.0 120,926 120" class="ea"/>
<path d="M 346 320 C 636.0 320,636.0 328,926 328" class="ea"/>
<path d="M 710 242 C 818.0 242,818.0 42,926 42" class="ea"/>
<path d="M 710 242 C 818.0 242,818.0 68,926 68" class="ea"/>
<path d="M 710 242 C 818.0 242,818.0 94,926 94" class="ea"/>
<path d="M 710 242 C 818.0 242,818.0 120,926 120" class="ea"/>
<path d="M 562 242 C 636.0 242,636.0 190,710 190" class="ea"/>
<path d="M 710 268 C 818.0 268,818.0 42,926 42" class="ea"/>
<path d="M 710 268 C 818.0 268,818.0 94,926 94" class="ea"/>
<path d="M 710 268 C 818.0 268,818.0 120,926 120" class="ea"/>
<path d="M 562 268 C 636.0 268,636.0 42,710 42" class="ea"/>
<path d="M 164 528 C 545.0 528,545.0 94,926 94" class="ea"/>
<path d="M 528 338 C 727.0 338,727.0 94,926 94" class="ea"/>
<path d="M 528 338 C 727.0 338,727.0 354,926 354" class="ea"/>
<path d="M 346 146 C 636.0 146,636.0 94,926 94" class="ea"/>
<path d="M 346 146 C 636.0 146,636.0 120,926 120" class="ea"/>
<path d="M 198 146 C 272.0 146,272.0 68,346 68" class="ea"/>
<path d="M 346 398 C 636.0 398,636.0 94,926 94" class="ea"/>
<path d="M 346 398 C 636.0 398,636.0 120,926 120" class="ea"/>
<path d="M 16 172 C 90.0 172,90.0 146,164 146" class="ea"/>
<path d="M 892 68 C 909.0 68,909.0 120,926 120" class="ea"/>
<path d="M 892 94 C 909.0 94,909.0 120,926 120" class="ea"/>
</svg>